<?xml version="1.0" encoding="UTF-8" standalone="no"?>
<!DOCTYPE svg PUBLIC "-//W3C//DTD SVG 1.1//EN" "http://www.w3.org/Graphics/SVG/1.1/DTD/svg11.dtd">
<svg width="100%" height="100%" viewBox="0 0 512 512" version="1.1" xmlns="http://www.w3.org/2000/svg" xmlns:xlink="http://www.w3.org/1999/xlink" xml:space="preserve" xmlns:serif="http://www.serif.com/" style="fill-rule:evenodd;clip-rule:evenodd;stroke-linejoin:round;stroke-miterlimit:2;">
    <g transform="matrix(7.68,0,0,7.68,10.24,-4.96928)">
        <path d="M61,42L53,42C52.4,42 52,42.4 52,43L52,47.4C52,48.6 52.2,49.7 52.6,50.8C52.9,51.7 53,52.6 53,53.6L53,56L35,56L35,53.8L38.2,53C38.7,52.9 39,52.5 39,52L39,50.6C41.3,49.7 43.5,48.7 45.5,47.5C45.8,47.3 46,47 46,46.6L46,34L49,34C49.6,34 50,33.6 50,33L54,33L54,36C54,36.6 54.4,37 55,37L59,37C59.6,37 60,36.6 60,36L60,32C60,30 58.8,28.2 57,27.4L57,25L58,25C58.6,25 59,24.6 59,24C59,23.4 58.6,23 58,23L50,23C49.4,23 49,23.4 49,24C49,24.6 49.4,25 50,25L51,25L51,27L50,27C50,26.4 49.6,26 49,26L46,26L46,13.4C46,13 45.8,12.7 45.5,12.5C43.5,11.3 41.3,10.3 39,9.4L39,8C39,7.5 38.7,7.1 38.2,7L34.2,6C33.9,5.9 33.6,6 33.3,6.2C33.1,6.4 33,6.7 33,7L33,7.6C28.8,6.5 24.5,6 20,6C15.9,6 11.9,6.5 8,7.3L8,7C8,6.7 7.9,6.4 7.6,6.2C7.4,6 7,6 6.8,6L2.8,7C2.4,7.1 2.2,7.4 2.1,7.7L2.1,52C2.1,52.5 2.4,52.9 2.8,53L6,53.8L6,56L3,56C2.4,56 2,56.4 2,57L2,61C2,61.6 2.4,62 3,62L61,62C61.6,62 62,61.6 62,61L62,57C62,56.4 61.6,56 61,56L61,53.6C61,52.7 61.2,51.7 61.4,50.8C61.8,49.7 62,48.6 62,47.4L62,43C62,42.4 61.6,42 61,42ZM53,25L55,25L55,27L53,27L53,25ZM46,28L48,28L48,32L46,32L46,28ZM39,15.4C40.8,15.9 42.4,16.4 44,17L44,19.1C42.4,18.5 40.8,17.9 39,17.4L39,15.4ZM39,23.1C40.8,23.3 42.4,23.5 44,23.8L44,25.8C42.4,25.5 40.8,25.3 39,25.1L39,23.1ZM39,34.9C40.8,34.7 42.4,34.4 44,34.2L44,36.2C42.4,36.5 40.8,36.7 39,36.9L39,34.9ZM39,42.5C40.8,42 42.4,41.5 44,40.8L44,43C42.4,43.6 40.7,44.1 39,44.6L39,42.5ZM35,51.7L35,8.3L37,8.8L37,51.2L35,51.7ZM6,8.3L6,51.7L4,51.2L4,8.8L6,8.3ZM10,56L8,56L8,51C8,50.5 8.5,50 9,50C9.5,50 10,50.5 10,51L10,56ZM29,56L12,56L12,53.4C14.6,53.8 17.3,54 20,54C23,54 26.1,53.7 29,53.3L29,56ZM33,51L33,56L31,56L31,51C31,50.5 31.5,50 32,50C32.5,50 33,50.5 33,51ZM33,45.9C28.8,46.6 24.5,47 20,47C15.9,47 11.9,46.7 8,46.1L8,44.1C11.9,44.7 15.9,45.1 20,45.1C24.5,45.1 28.8,44.7 33,44L33,45.9ZM33,37.5C28.8,37.8 24.4,38 20,38C15.9,38 11.8,37.9 8,37.6L8,35.6C11.8,35.9 15.9,36 20,36C24.4,36 28.8,35.8 33,35.5L33,37.5ZM33,24.5C28.8,24.2 24.4,24 20,24C15.9,24 11.8,24.1 8,24.4L8,22.4C11.8,22.1 15.9,22 20,22C24.4,22 28.8,22.2 33,22.5L33,24.5ZM33,16.1C28.8,15.4 24.5,15 20,15C15.9,15 11.9,15.3 8,16L8,14C11.9,13.4 15.9,13.1 20,13.1C24.5,13.1 28.8,13.5 33,14.2L33,16.1ZM60,46L54,46L54,44L60,44L60,46Z" style="fill:white;fill-rule:nonzero;"/>
    </g>
</svg>
