<?xml version="1.0" encoding="UTF-8" standalone="no"?>
<!DOCTYPE svg PUBLIC "-//W3C//DTD SVG 1.1//EN" "http://www.w3.org/Graphics/SVG/1.1/DTD/svg11.dtd">
<svg width="100%" height="100%" viewBox="0 0 448 512" version="1.1" xmlns="http://www.w3.org/2000/svg" xmlns:xlink="http://www.w3.org/1999/xlink" xml:space="preserve" xmlns:serif="http://www.serif.com/" style="fill-rule:evenodd;clip-rule:evenodd;stroke-linejoin:round;stroke-miterlimit:2;">
    <g transform="matrix(0.9,0,0,0.9,22.4,25.6)">
        <path d="M436,480L416,480L416,24C416,10.745 405.255,0 392,0L56,0C42.745,0 32,10.745 32,24L32,480L12,480C5.373,480 0,485.373 0,492L0,512L448,512L448,492C448,485.373 442.627,480 436,480ZM128,76C128,69.373 133.373,64 140,64L180,64C186.627,64 192,69.373 192,76L192,116C192,122.627 186.627,128 180,128L140,128C133.373,128 128,122.627 128,116L128,76ZM128,172C128,165.373 133.373,160 140,160L180,160C186.627,160 192,165.373 192,172L192,212C192,218.627 186.627,224 180,224L140,224C133.373,224 128,218.627 128,212L128,172ZM180,320L140,320C133.373,320 128,314.627 128,308L128,268C128,261.373 133.373,256 140,256L180,256C186.627,256 192,261.373 192,268L192,308C192,314.627 186.627,320 180,320ZM256,480L192,480L192,396C192,389.373 197.373,384 204,384L244,384C250.627,384 256,389.373 256,396L256,480ZM320,308C320,314.627 314.627,320 308,320L268,320C261.373,320 256,314.627 256,308L256,268C256,261.373 261.373,256 268,256L308,256C314.627,256 320,261.373 320,268L320,308ZM320,212C320,218.627 314.627,224 308,224L268,224C261.373,224 256,218.627 256,212L256,172C256,165.373 261.373,160 268,160L308,160C314.627,160 320,165.373 320,172L320,212ZM320,116C320,122.627 314.627,128 308,128L268,128C261.373,128 256,122.627 256,116L256,76C256,69.373 261.373,64 268,64L308,64C314.627,64 320,69.373 320,76L320,116Z" style="fill:white;fill-rule:nonzero;"/>
    </g>
</svg>
