<?xml version="1.0" encoding="UTF-8" standalone="no"?>
<!DOCTYPE svg PUBLIC "-//W3C//DTD SVG 1.1//EN" "http://www.w3.org/Graphics/SVG/1.1/DTD/svg11.dtd">
<svg width="100%" height="100%" viewBox="0 0 512 512" version="1.1" xmlns="http://www.w3.org/2000/svg" xmlns:xlink="http://www.w3.org/1999/xlink" xml:space="preserve" xmlns:serif="http://www.serif.com/" style="fill-rule:evenodd;clip-rule:evenodd;stroke-linejoin:round;stroke-miterlimit:2;">
    <g transform="matrix(10.4746,0,0,10.4746,4.56828,4.60954)">
        <path d="M46,28C46,30.743 43.743,33 41,33L38,33L38,40C38,40.549 37.549,41 37,41L33,41C32.451,41 32,40.549 32,40L32,35.75C33.671,35.317 35.156,34.351 36.23,33C36.942,32.118 37.461,31.096 37.75,30C37.915,29.346 37.999,28.674 38,28C37.999,26.5 37.577,25.031 36.78,23.76C37.009,23.029 37.123,22.266 37.12,21.5C37.116,19.544 36.351,17.664 34.99,16.26C34.998,16.174 35.002,16.087 35,16C34.995,13.378 33.522,10.969 31.19,9.77C31.718,8.117 33.265,6.988 35,6.988C37.194,6.988 39,8.794 39,10.988C39,10.992 39,10.996 39,11C39.003,11.338 38.959,11.674 38.87,12L39.008,12C41.198,12 43,13.802 43,15.992C43,16.513 42.898,17.028 42.7,17.51C44.19,18.278 45.13,19.819 45.13,21.495C45.13,22.467 44.814,23.413 44.23,24.19C45.351,25.137 46,26.532 46,28Z" style="fill:white;fill-rule:nonzero;"/>
    </g>
    <g transform="matrix(10.4746,0,0,10.4746,4.56828,4.60954)">
        <path d="M34.506,24.039C35.749,21.644 35.057,18.669 32.884,17.069C32.961,16.718 33,16.359 33,15.999C33,13.632 31.319,11.573 29,11.1L29,11C29,8.257 26.743,6 24,6C21.257,6 19,8.257 19,11L19,11.1C16.682,11.576 15.003,13.634 15,16C15,16.362 15.039,16.723 15.117,17.076C12.947,18.677 12.257,21.649 13.499,24.043C12.539,25.137 12.009,26.544 12.009,28C12.009,31.288 14.712,33.995 18,34L21,34L21,41C21,41.549 21.451,42 22,42L26,42C26.549,42 27,41.549 27,41L27,34L30,34C33.291,34 35.999,31.291 35.999,28C35.999,26.542 35.468,25.134 34.506,24.039Z" style="fill:white;fill-rule:nonzero;"/>
    </g>
    <g transform="matrix(10.4746,0,0,10.4746,4.56828,4.60954)">
        <path d="M16,35.75L16,40C16,40.549 15.549,41 15,41L11,41C10.451,41 10,40.549 10,40L10,33L7,33C4.26,32.996 2.008,30.74 2.008,28C2.008,26.534 2.653,25.139 3.77,24.19C3.186,23.413 2.87,22.466 2.87,21.494C2.87,19.821 3.805,18.281 5.29,17.51C5.092,17.028 4.99,16.513 4.99,15.992C4.99,13.802 6.792,12 8.982,12L9.13,12C9.041,11.674 8.997,11.338 9,11C9,10.996 9,10.992 9,10.988C9,8.794 10.806,6.988 13,6.988C14.735,6.988 16.282,8.117 16.81,9.77C14.475,10.965 13,13.377 13,16L13,16.27C11.072,18.244 10.386,21.13 11.22,23.76C10.423,25.031 10.001,26.5 10,28C10,28.334 10.02,28.668 10.06,29C10.488,32.239 12.841,34.914 16,35.75Z" style="fill:white;fill-rule:nonzero;"/>
    </g>
</svg>
