<?xml version="1.0" encoding="UTF-8" standalone="no"?>
<!DOCTYPE svg PUBLIC "-//W3C//DTD SVG 1.1//EN" "http://www.w3.org/Graphics/SVG/1.1/DTD/svg11.dtd">
<svg width="100%" height="100%" viewBox="0 0 512 512" version="1.1" xmlns="http://www.w3.org/2000/svg" xmlns:xlink="http://www.w3.org/1999/xlink" xml:space="preserve" xmlns:serif="http://www.serif.com/" style="fill-rule:evenodd;clip-rule:evenodd;stroke-linejoin:round;stroke-miterlimit:2;">
    <path d="M495.9,132.2C505.8,137.9 512,148.5 512,160L512,230C512,247.7 497.7,262 480,262C462.3,262 448,247.7 448,230L448,178.6L256,68.86L64,178.6L64,230C64,247.7 49.67,262 32,262C14.33,262 0,247.7 0,230L0,160C0,148.5 6.153,137.9 16.12,132.2L240.1,4.216C249.1,-1.405 262,-1.405 271.9,4.216L495.9,132.2ZM216,168C216,145.9 233.9,128 256,128C278.1,128 296,145.9 296,168C296,190.1 278.1,208 256,208C233.9,208 216,190.1 216,168ZM224,512C210.7,512 200,501.3 200,488L200,313.5L173.1,363.4C166.8,375 152.3,379.4 140.6,373.1C128.1,366.8 124.6,352.3 130.9,340.6L168.7,270.3C184.1,241.8 213.9,223.1 246.2,223.1L265.8,223.1C298.1,223.1 327.9,241.8 343.3,270.3L381.1,340.6C387.4,352.3 383,366.8 371.4,373.1C359.7,379.4 345.2,375 338.9,363.4L312,313.5L312,488C312,501.3 301.3,512 288,512C274.7,512 264,501.3 264,488L264,400L248,400L248,488C248,501.3 237.3,512 224,512Z" style="fill:white;fill-rule:nonzero;"/>
</svg>
