<?xml version="1.0" encoding="UTF-8" standalone="no"?>
<!DOCTYPE svg PUBLIC "-//W3C//DTD SVG 1.1//EN" "http://www.w3.org/Graphics/SVG/1.1/DTD/svg11.dtd">
<svg width="100%" height="100%" viewBox="0 0 512 512" version="1.1" xmlns="http://www.w3.org/2000/svg" xmlns:xlink="http://www.w3.org/1999/xlink" xml:space="preserve" xmlns:serif="http://www.serif.com/" style="fill-rule:evenodd;clip-rule:evenodd;stroke-linejoin:round;stroke-miterlimit:2;">
    <g id="path7509" transform="matrix(35.4462,0,0,35.4462,-9.84615,25.6)">
        <path d="M7.5,0L1,3.445L1,4L14,4L14,3.445L7.5,0ZM2,5L2,10L1,11.555L1,13L14,13L14,11.555L13,10L13,5L2,5ZM4,6L5,6L5,11.5L4,11.5L4,6ZM7,6L8,6L8,11.5L7,11.5L7,6ZM10,6L11,6L11,11.5L10,11.5L10,6Z" style="fill:white;fill-rule:nonzero;"/>
    </g>
</svg>
