<?xml version="1.0" encoding="UTF-8" standalone="no"?>
<!DOCTYPE svg PUBLIC "-//W3C//DTD SVG 1.1//EN" "http://www.w3.org/Graphics/SVG/1.1/DTD/svg11.dtd">
<svg width="100%" height="100%" viewBox="0 0 512 512" version="1.1" xmlns="http://www.w3.org/2000/svg" xmlns:xlink="http://www.w3.org/1999/xlink" xml:space="preserve" xmlns:serif="http://www.serif.com/" style="fill-rule:evenodd;clip-rule:evenodd;stroke-linejoin:round;stroke-miterlimit:2;">
    <g id="XMLID_30_" transform="matrix(7.2,0,0,7.2,-75.2,-75.2)">
        <path d="M21,53C19.2,53 17.3,52.2 16,50.9C14.7,49.6 14,47.8 14,46C14,44.2 14.8,42.4 16,41C17.3,39.7 19.1,39 21,39C22.8,39 24.6,39.8 25.9,41C27.2,42.3 28,44.1 28,46C28,47.8 27.2,49.6 25.9,50.9C24.6,52.2 22.8,53 21,53ZM50.9,50.9C52.2,49.6 53,47.8 53,46C53,44.2 52.2,42.4 50.9,41C49.6,39.7 47.8,39 46,39C44.2,39 42.3,39.8 41,41C39.7,42.3 39,44.1 39,46C39,47.8 39.8,49.6 41,50.9C42.3,52.2 44.1,53 46,53C47.8,53 49.6,52.2 50.9,50.9ZM75.9,50.9C77.2,49.6 78,47.8 78,46C78,44.2 77.2,42.4 75.9,41C74.6,39.7 72.8,39 71,39C69.2,39 67.3,39.8 66,41C64.7,42.3 64,44.1 64,46C64,47.8 64.8,49.6 66,50.9C67.3,52.2 69.1,53 71,53C72.8,53 74.6,52.2 75.9,50.9Z" style="fill:white;fill-rule:nonzero;"/>
    </g>
</svg>
