<?xml version="1.0" encoding="UTF-8" standalone="no"?>
<!DOCTYPE svg PUBLIC "-//W3C//DTD SVG 1.1//EN" "http://www.w3.org/Graphics/SVG/1.1/DTD/svg11.dtd">
<svg width="100%" height="100%" viewBox="0 0 512 512" version="1.1" xmlns="http://www.w3.org/2000/svg" xmlns:xlink="http://www.w3.org/1999/xlink" xml:space="preserve" xmlns:serif="http://www.serif.com/" style="fill-rule:evenodd;clip-rule:evenodd;stroke-linejoin:round;stroke-miterlimit:2;">
    <g>
        <path d="M260.7,31.1C265.9,31.61 270.6,33.55 275.2,36L284.3,19.7C277.9,15.89 270.4,13.63 263.6,12.4C262.7,18.64 261.7,24.87 260.7,31.1ZM251.6,12.7C244,13.21 237.5,15.22 230.5,18.7L238.8,35.4C243.9,33.52 248.4,31.68 253.4,31.4L251.6,12.7ZM213.1,31.4C208.1,36.57 203.3,43.09 200.4,48.4L216.7,57.5C219.8,52.79 222.6,48.41 226.3,44.7C222,40.24 217.3,35.92 213.1,31.4ZM301.2,33.3L287.2,45.7C291,49.68 293.8,54.33 296.5,59.1L313.2,50.6C309.7,44.31 305.4,38.06 301.2,33.3ZM192.4,67.4C190.3,74.11 189.1,81.59 188.6,87.6L207.2,89.4C207.8,83.18 208.6,78.66 210.2,72.9L192.4,67.4ZM320.6,69.6C314.6,71.46 308.6,73.02 302.5,74.5C303.6,80.08 304.7,86.29 305.2,91.1L323.9,90.1C323.1,83.06 322.1,75.82 320.6,69.6ZM207.4,106.2L188.9,108.1C189.3,115.1 191.5,122.4 193.2,128.2L211,122.5C209.3,116.7 208.1,111.5 207.4,106.2ZM304.6,107.9C303.8,113.6 302.2,119.1 300.6,124.1L318.1,130.7C320.4,124 322.2,116.7 323.1,110.7L304.6,107.9ZM217.9,137.3C217.9,137.3 206.4,142.7 201.8,144C201.8,144 206.6,153.6 208.7,161.1C216.3,158.9 224.2,157.9 232,156.6C227.3,149.7 221.5,143.2 217.9,137.3ZM293.2,139C289,145.3 284,151 279.3,156.9C287.1,159 295.3,159.6 302.9,162.4C302.9,162.4 307.3,149.5 309,144.7C303.3,142.8 293.2,139 293.2,139ZM184.3,151.7C177.7,156.1 173.2,159.8 168.2,165.1L181.7,178C186.3,173.5 189.5,170.5 194.3,167.5L184.3,151.7ZM327.9,154.5L317.1,169.7C321.7,172.8 325.8,176.6 329.4,180.8L343.3,168.3C337.9,162.7 333.9,158.5 327.9,154.5ZM155.8,181.9C152.3,187.6 149.5,193.7 147.1,199.9L164.5,206.8C166.5,201.4 169,196.1 172,191.2L155.8,181.9ZM355.3,185.1L339.1,194.3C341.9,199.4 344.5,204.7 346.7,210.1L364,203C361.6,196.8 358.5,190.9 355.3,185.1ZM141.1,218.9C139.5,225.1 138.1,231.6 137.3,238.1L155.7,240.9C156.5,235 157.9,229.2 159.2,223.4L141.1,218.9ZM370.2,221.9L352.1,226.7C353.9,232.4 354.7,238.2 355.9,244.1L374.3,241C373.2,234.6 372,228.2 370.2,221.9ZM135.1,257.4C134.6,264.2 134.5,270 134.5,276.7L153.2,276.7C153.3,270.4 153.4,263.8 153.8,258.7L135.1,257.4ZM376.7,260.3L358,261.8C358.5,267.6 358.8,273.8 358.8,279.8L377.5,279.7C377.4,272.7 377.1,266.5 376.7,260.3ZM153.7,294.9L135,295.9C135.4,302.3 136,308.6 136.7,315L155.3,313C154.5,307 154.1,300.9 153.7,294.9ZM358.2,297.8C358,303.8 357.2,309.8 356.5,315.8L375,318.2C376,311.9 376.4,305.5 376.9,299.1L358.2,297.8ZM139,329.6C139.5,335.9 141,342.5 141.9,347.9L162.2,347.9L162.2,329.2C154.5,329 146.8,329.3 139,329.6ZM180.9,329.2C180.8,335.6 180.9,341.5 180.9,347.9L200.1,347.4C199.6,341.3 199.2,335.3 198.9,329.2L180.9,329.2ZM310.9,329.2C310.4,335.5 309.9,341.9 309.4,348.2L328.1,349.6L327.9,329.2L310.9,329.2ZM346.6,329.2L346.6,347.9L369.8,347.9C371.1,341.5 372.1,336.3 373.2,329.9C364.4,329 355.5,329.2 346.6,329.2ZM201.3,366.1L182.7,367.3L183.9,386L202.5,384.7L201.3,366.1ZM308,366.8L306.7,385.4L325.3,386.8L326.7,368.2L308,366.8ZM247.8,378.7L247.8,397.4L266.4,397.4L266.4,378.7L247.8,378.7ZM203.8,403.4L185.1,404.6L186.4,423.3L205,422L203.8,403.4ZM305.3,404.1L303.9,422.7L322.5,424.1L323.9,405.5L305.3,404.1ZM247.8,416.1L247.8,434.8L266.4,434.8L266.4,416.1L247.8,416.1ZM206.2,440.7L187.6,441.9L188.8,460.6L207.5,459.3L206.2,440.7ZM302.5,441.3L301.1,460L319.7,461.4L321.1,442.7L302.5,441.3ZM247.8,453.5L247.8,472.2L266.4,472.2L266.4,453.5L247.8,453.5ZM208.7,478L190,479.2C190.5,486 190.9,492.8 191.4,499.6L207.1,499.6L208.7,478ZM299.7,478.6L300.5,499.6L316.9,499.6C317.3,493.1 317.9,486.5 318.4,480L299.7,478.6ZM225.8,480.9L225.8,499.6L244.4,499.6L244.4,480.9L225.8,480.9ZM263.1,480.9L263.1,499.6L281.8,499.6L281.8,480.9L263.1,480.9Z" style="fill:white;fill-rule:nonzero;"/>
    </g>
</svg>
