<?xml version="1.0" encoding="UTF-8" standalone="no"?>
<!DOCTYPE svg PUBLIC "-//W3C//DTD SVG 1.1//EN" "http://www.w3.org/Graphics/SVG/1.1/DTD/svg11.dtd">
<svg width="100%" height="100%" viewBox="0 0 512 512" version="1.1" xmlns="http://www.w3.org/2000/svg" xmlns:xlink="http://www.w3.org/1999/xlink" xml:space="preserve" xmlns:serif="http://www.serif.com/" style="fill-rule:evenodd;clip-rule:evenodd;stroke-linejoin:round;stroke-miterlimit:2;">
    <g transform="matrix(7.68,0,0,7.68,10.2401,10.2399)">
        <g id="_13-Warehouse" serif:id="13-Warehouse">
            <path id="path1611" d="M31.432,2.178L2.428,22.176C2.158,22.364 1.998,22.673 2,23.002L2,28C1.998,28.552 2.444,29.002 2.996,29.004L6,29.004L6,27C6,25.896 6.895,25 8,25C22.281,25 39.343,24.992 56,25C57.105,25 58,25.896 58,27L58,29.004L60.996,29.004C61.551,29.006 62.002,28.555 62,28L62,21.998C62,21.663 61.831,21.349 61.551,21.164L32.547,2.162C32.378,2.052 32.18,1.996 31.979,2C31.783,2.004 31.593,2.066 31.432,2.178ZM23.002,12.002L40.998,12.002C41.554,11.999 42.006,12.45 42.004,13.006L42.004,20.004C42.002,20.557 41.551,21.003 40.998,21L23.002,21C22.45,21.002 22,20.556 21.998,20.004L21.998,13.006C21.996,12.451 22.447,12 23.002,12.002ZM23.998,14.002L23.998,19L28,19L28,14.002L23.998,14.002ZM30,14.002L30,19L34.002,19L34.002,14.002L30,14.002ZM36.002,14.002L36.002,19L40.002,19L40.002,14.002L36.002,14.002ZM8,27L8,60.996C7.998,61.552 8.449,62.002 9.004,62L12.004,62L12.004,27C10.776,27 9.191,27 8,27ZM51.998,27L51.998,62L54.994,62C55.55,62.003 56.002,61.552 56,60.996L56,27C54.611,27 53.391,27.001 51.998,27ZM14.004,27.004L14.004,29L49.998,29L49.998,27.004L14.004,27.004ZM14.004,31L14.004,33L49.998,33L49.998,31L14.004,31ZM14.004,35L14.004,36.998L49.998,36.998L49.998,35L14.004,35ZM25.002,41.006C29.671,41.005 34.328,41.006 38.998,41.006C39.55,41.004 40,41.45 40.002,42.002L40.002,51L45.996,51C46.551,50.998 47.002,51.449 47,52.004L47,62L49.998,62L49.998,38.998L14.004,38.998L14.004,62L17,62L17,52.004C16.998,51.452 17.444,51.002 17.996,51L23.998,51L23.998,42.002C23.998,41.488 24.387,41.057 24.9,41.005C24.936,41.003 24.969,41.004 25.002,41.006ZM25.998,43.006L25.998,51L38.002,51L38.002,43.006L34.998,43.006L34.998,46.002C34.998,46.745 34.216,47.229 33.551,46.897L32,46.121L30.451,46.897C29.786,47.229 29.004,46.745 29.004,46.002L29.004,43.006L25.998,43.006ZM30.996,43.006L30.996,44.387L31.551,44.106C31.834,43.963 32.168,43.963 32.451,44.106L32.996,44.379L32.996,43.006L30.996,43.006ZM19.002,53L19.002,62L30.996,62L30.996,53L28,53L28,56.006C27.999,56.749 27.217,57.231 26.553,56.899L25.002,56.123L23.445,56.899C22.781,57.231 22,56.749 21.998,56.006L21.998,53L19.002,53ZM23.998,53L23.998,54.381L24.553,54.107C24.834,53.967 25.164,53.967 25.445,54.107L25.998,54.381L25.998,53L23.998,53ZM32.996,53L32.996,62L45,62L45,53L42.004,53L42.004,56.006C42.002,56.749 41.221,57.231 40.557,56.899L38.998,56.123L37.449,56.899C36.785,57.231 36.003,56.749 36.002,56.006L36.002,53L32.996,53ZM38.002,53L38.002,54.381L38.555,54.107C38.836,53.966 39.168,53.966 39.449,54.107L40.002,54.381L40.002,53L38.002,53Z" style="fill:white;fill-rule:nonzero;"/>
        </g>
    </g>
</svg>
