<?xml version="1.0" encoding="UTF-8" standalone="no"?>
<!DOCTYPE svg PUBLIC "-//W3C//DTD SVG 1.1//EN" "http://www.w3.org/Graphics/SVG/1.1/DTD/svg11.dtd">
<svg width="100%" height="100%" viewBox="0 0 512 512" version="1.1" xmlns="http://www.w3.org/2000/svg" xmlns:xlink="http://www.w3.org/1999/xlink" xml:space="preserve" xmlns:serif="http://www.serif.com/" style="fill-rule:evenodd;clip-rule:evenodd;stroke-linejoin:round;stroke-miterlimit:2;">
    <g transform="matrix(8.49714,0,0,8.49714,-15.9501,-15.9079)">
        <path d="M6.89,11.09C7.591,11.088 8.285,11.231 8.929,11.51C9.572,11.789 10.151,12.197 10.63,12.71C12.324,14.336 14.582,15.243 16.93,15.243C19.278,15.243 21.535,14.336 23.23,12.71C23.711,12.199 24.291,11.791 24.935,11.513C25.579,11.234 26.273,11.091 26.975,11.091C27.677,11.091 28.371,11.234 29.015,11.513C29.659,11.791 30.239,12.199 30.72,12.71C32.414,14.336 34.672,15.243 37.02,15.243C39.368,15.243 41.625,14.336 43.32,12.71C43.801,12.199 44.381,11.791 45.025,11.513C45.669,11.234 46.363,11.091 47.065,11.091C47.767,11.091 48.461,11.234 49.105,11.513C49.749,11.791 50.329,12.199 50.81,12.71C52.492,14.356 54.756,15.273 57.11,15.26C57.64,15.26 58.149,15.049 58.524,14.674C58.899,14.299 59.11,13.791 59.11,13.26C59.11,12.73 58.899,12.221 58.524,11.846C58.149,11.471 57.64,11.26 57.11,11.26C56.406,11.262 55.71,11.119 55.064,10.838C54.419,10.558 53.838,10.146 53.36,9.63C51.668,8 49.41,7.089 47.06,7.089C44.71,7.089 42.452,8 40.76,9.63C40.281,10.144 39.701,10.554 39.057,10.834C38.413,11.114 37.718,11.259 37.015,11.259C36.312,11.259 35.617,11.114 34.973,10.834C34.329,10.554 33.749,10.144 33.27,9.63C31.573,8.009 29.317,7.104 26.97,7.104C24.623,7.104 22.367,8.009 20.67,9.63C20.192,10.144 19.613,10.553 18.969,10.833C18.326,11.114 17.632,11.258 16.93,11.258C16.228,11.258 15.534,11.114 14.89,10.833C14.247,10.553 13.668,10.144 13.19,9.63C11.502,7.993 9.241,7.081 6.89,7.09C6.359,7.09 5.851,7.301 5.476,7.676C5.101,8.051 4.89,8.56 4.89,9.09C4.89,9.62 5.101,10.129 5.476,10.504C5.851,10.879 6.359,11.09 6.89,11.09Z" style="fill:white;fill-rule:nonzero;"/>
    </g>
    <g transform="matrix(8.49714,0,0,8.49714,-15.9501,-15.9079)">
        <path d="M57.11,25.14C56.407,25.144 55.71,25.003 55.065,24.724C54.419,24.445 53.839,24.035 53.36,23.52C51.665,21.895 49.408,20.987 47.06,20.987C44.712,20.987 42.454,21.895 40.76,23.52C40.279,24.032 39.699,24.439 39.055,24.718C38.411,24.996 37.717,25.14 37.015,25.14C36.313,25.14 35.619,24.996 34.975,24.718C34.331,24.439 33.751,24.032 33.27,23.52C31.573,21.899 29.317,20.994 26.97,20.994C24.623,20.994 22.367,21.899 20.67,23.52C20.191,24.033 19.612,24.441 18.968,24.72C18.325,25 17.631,25.144 16.93,25.144C16.229,25.144 15.535,25 14.891,24.72C14.248,24.441 13.669,24.033 13.19,23.52C11.499,21.891 9.238,20.986 6.89,21C6.359,21 5.851,21.211 5.476,21.586C5.101,21.961 4.89,22.47 4.89,23C4.89,23.531 5.101,24.039 5.476,24.414C5.851,24.79 6.359,25 6.89,25C7.592,24.996 8.286,25.138 8.93,25.417C9.574,25.696 10.153,26.106 10.63,26.62C12.322,28.251 14.58,29.161 16.93,29.161C19.28,29.161 21.538,28.251 23.23,26.62C23.711,26.109 24.291,25.702 24.935,25.423C25.579,25.145 26.273,25.001 26.975,25.001C27.677,25.001 28.371,25.145 29.015,25.423C29.659,25.702 30.239,26.109 30.72,26.62C32.417,28.241 34.673,29.146 37.02,29.146C39.367,29.146 41.623,28.241 43.32,26.62C43.799,26.106 44.379,25.697 45.023,25.416C45.667,25.136 46.362,24.992 47.065,24.992C47.768,24.992 48.463,25.136 49.107,25.416C49.751,25.697 50.331,26.106 50.81,26.62C52.498,28.257 54.759,29.169 57.11,29.16C57.643,29.16 58.154,28.949 58.531,28.572C58.908,28.195 59.12,27.683 59.12,27.15C59.12,26.617 58.908,26.106 58.531,25.729C58.154,25.352 57.643,25.14 57.11,25.14Z" style="fill:white;fill-rule:nonzero;"/>
    </g>
    <g transform="matrix(8.49714,0,0,8.49714,-15.9501,-15.9079)">
        <path d="M57.11,39C56.407,39.004 55.71,38.862 55.065,38.583C54.419,38.305 53.839,37.895 53.36,37.38C51.663,35.759 49.407,34.854 47.06,34.854C44.713,34.854 42.457,35.759 40.76,37.38C40.279,37.891 39.699,38.299 39.055,38.577C38.411,38.856 37.717,38.999 37.015,38.999C36.313,38.999 35.619,38.856 34.975,38.577C34.331,38.299 33.751,37.891 33.27,37.38C31.573,35.759 29.317,34.854 26.97,34.854C24.623,34.854 22.367,35.759 20.67,37.38C20.192,37.894 19.613,38.303 18.969,38.583C18.326,38.863 17.632,39.008 16.93,39.008C16.228,39.008 15.534,38.863 14.89,38.583C14.247,38.303 13.668,37.894 13.19,37.38C11.502,35.743 9.241,34.831 6.89,34.84C6.359,34.84 5.851,35.051 5.476,35.426C5.101,35.801 4.89,36.31 4.89,36.84C4.89,37.37 5.101,37.879 5.476,38.254C5.851,38.629 6.359,38.84 6.89,38.84C7.592,38.836 8.286,38.978 8.93,39.257C9.574,39.536 10.153,39.945 10.63,40.46C12.322,42.09 14.58,43.001 16.93,43.001C19.28,43.001 21.538,42.09 23.23,40.46C23.711,39.949 24.291,39.541 24.935,39.263C25.579,38.984 26.273,38.841 26.975,38.841C27.677,38.841 28.371,38.984 29.015,39.263C29.659,39.541 30.239,39.949 30.72,40.46C32.417,42.081 34.673,42.986 37.02,42.986C39.367,42.986 41.623,42.081 43.32,40.46C43.8,39.947 44.38,39.539 45.024,39.259C45.668,38.98 46.363,38.836 47.065,38.836C47.767,38.836 48.462,38.98 49.106,39.259C49.75,39.539 50.33,39.947 50.81,40.46C52.498,42.097 54.759,43.009 57.11,43C57.64,43 58.149,42.789 58.524,42.414C58.899,42.039 59.11,41.53 59.11,41C59.11,40.469 58.899,39.961 58.524,39.586C58.149,39.211 57.64,39 57.11,39Z" style="fill:white;fill-rule:nonzero;"/>
    </g>
    <g transform="matrix(8.49714,0,0,8.49714,-15.9501,-15.9079)">
        <path d="M57.11,52.91C56.407,52.912 55.712,52.769 55.066,52.49C54.421,52.211 53.84,51.803 53.36,51.29C51.665,49.664 49.408,48.757 47.06,48.757C44.712,48.757 42.454,49.664 40.76,51.29C40.279,51.801 39.699,52.209 39.055,52.487C38.411,52.766 37.717,52.909 37.015,52.909C36.313,52.909 35.619,52.766 34.975,52.487C34.331,52.209 33.751,51.801 33.27,51.29C31.575,49.664 29.318,48.757 26.97,48.757C24.622,48.757 22.364,49.664 20.67,51.29C20.191,51.802 19.612,52.211 18.968,52.49C18.325,52.769 17.631,52.913 16.93,52.913C16.229,52.913 15.535,52.769 14.891,52.49C14.248,52.211 13.669,51.802 13.19,51.29C11.508,49.644 9.244,48.727 6.89,48.74C6.359,48.74 5.851,48.951 5.476,49.326C5.101,49.701 4.89,50.209 4.89,50.74C4.89,51.27 5.101,51.779 5.476,52.154C5.851,52.529 6.359,52.74 6.89,52.74C7.592,52.738 8.287,52.882 8.931,53.162C9.575,53.443 10.153,53.854 10.63,54.37C12.322,56 14.58,56.911 16.93,56.911C19.28,56.911 21.538,56 23.23,54.37C23.709,53.856 24.289,53.446 24.933,53.166C25.577,52.886 26.272,52.741 26.975,52.741C27.677,52.741 28.372,52.886 29.017,53.166C29.661,53.446 30.241,53.856 30.72,54.37C32.417,55.991 34.673,56.896 37.02,56.896C39.367,56.896 41.623,55.991 43.32,54.37C43.799,53.856 44.379,53.446 45.023,53.166C45.667,52.886 46.362,52.741 47.065,52.741C47.768,52.741 48.463,52.886 49.107,53.166C49.751,53.446 50.331,53.856 50.81,54.37C52.498,56.007 54.759,56.919 57.11,56.91C57.64,56.91 58.149,56.699 58.524,56.324C58.899,55.949 59.11,55.44 59.11,54.91C59.11,54.379 58.899,53.871 58.524,53.496C58.149,53.121 57.64,52.91 57.11,52.91Z" style="fill:white;fill-rule:nonzero;"/>
    </g>
</svg>
